# xmcd
#
# Track frame offsets:
# 150
# 13288
# 33848
# 49782
# 65179
# 78899
# 92582
# 106268
# 120316
# 131305
# 143519
# 158284
# 171869
# 186190
# 199133
#
# Disc length: 2844 seconds
#
# Revision: 0
# Processed by: cddbd v1.4PL0 Copyright (c) Steve Scherf et al.
# Submitted via: Audion 2.5.0 (http://www.panic.com/audion/)
#
DISCID=b80b1a0f
DTITLE=Joan Sebastian - 1
DYEAR=1900
DGENRE=
TTITLE0=Intro Mix
TTITLE1=Secreto de Amor
TTITLE2=Tatuajes
TTITLE3=Juliantla
TTITLE4=Hasta que Amanezca
TTITLE5=Y las Mariposas
TTITLE6=El Camino del Amor
TTITLE7=Melodia Para Dos
TTITLE8=Sembrador de Amor
TTITLE9=Veinticinco Rosas
TTITLE10=Rumores
TTITLE11=Alama de Niña
TTITLE12=Vete o Me Voy
TTITLE13=Copla Campesina
TTITLE14=Hay Un Tren a Las 5
EXTD=
EXTT0=
EXTT1=
EXTT2=
EXTT3=
EXTT4=
EXTT5=
EXTT6=
EXTT7=
EXTT8=
EXTT9=
EXTT10=
EXTT11=
EXTT12=
EXTT13=
EXTT14=
PLAYORDER=
